HIERARCHY
ROOT SpineBase
{
  OFFSET 0.000000 0.000000 0.000000
  CHANNELS 6 Xposition Yposition Zposition Zrotation Xrotation Yrotation
  JOINT SpineMid
  {
    OFFSET 0.000000 31.824516 0.000000
    CHANNELS 3 Zrotation Xrotation Yrotation
    JOINT SpineShoulder
    {
      OFFSET -0.114537 23.703239 -0.835888
      CHANNELS 3 Zrotation Xrotation Yrotation
      JOINT Neck
      {
        OFFSET -0.071717 7.871401 -0.635874
        CHANNELS 3 Zrotation Xrotation Yrotation
        JOINT Head
        {
          OFFSET 2.910953 13.999256 -1.230621
          CHANNELS 3 Zrotation Xrotation Yrotation
          End Site
          {
            OFFSET 0 0 0
          }
        }
      }
      JOINT ShoulderLeft
      {
        OFFSET -14.632852 -1.563999 -8.335414
        CHANNELS 3 Zrotation Xrotation Yrotation
        JOINT ElbowLeft
        {
          OFFSET -5.894247 -26.472090 -1.722826
          CHANNELS 3 Zrotation Xrotation Yrotation
          JOINT WristLeft
          {
            OFFSET -0.416740 -23.214119 -6.876663
            CHANNELS 3 Zrotation Xrotation Yrotation
            JOINT HandLeft
            {
              OFFSET 0.580954 -7.183750 -1.800248
              CHANNELS 3 Zrotation Xrotation Yrotation
              JOINT HandTipLeft
              {
                OFFSET 1.526635 -6.665606 -0.342493
                CHANNELS 3 Zrotation Xrotation Yrotation
                End Site
                {
                  OFFSET 0 0 0
                }
              }
              JOINT ThumbLeft
              {
                OFFSET -2.438852 -1.883677 -2.027200
                CHANNELS 3 Zrotation Xrotation Yrotation
                End Site
                {
                  OFFSET 0 0 0
                }
              }
            }
          }
        }
      }
      JOINT ShoulderRight
      {
        OFFSET 17.290887 -4.209857 4.232066
        CHANNELS 3 Zrotation Xrotation Yrotation
        JOINT ElbowRight
        {
          OFFSET 1.223543 -22.723767 4.459678
          CHANNELS 3 Zrotation Xrotation Yrotation
          JOINT WristRight
          {
            OFFSET -2.071933 -22.714265 -7.410459
            CHANNELS 3 Zrotation Xrotation Yrotation
            JOINT HandRight
            {
              OFFSET -2.964681 -8.313414 -3.324298
              CHANNELS 3 Zrotation Xrotation Yrotation
              JOINT HandTipRight
              {
                OFFSET 0.006511 -6.018684 0.384043
                CHANNELS 3 Zrotation Xrotation Yrotation
                End Site
                {
                  OFFSET 0 0 0
                }
              }
              JOINT ThumbRight
              {
                OFFSET -1.687842 0.859258 -3.997106
                CHANNELS 3 Zrotation Xrotation Yrotation
                End Site
                {
                  OFFSET 0 0 0
                }
              }
            }
          }
        }
      }
    }
  }
  JOINT HipLeft
  {
    OFFSET -6.864763 1.944785 -5.800848
    CHANNELS 3 Zrotation Xrotation Yrotation
    JOINT KneeLeft
    {
      OFFSET -2.347018 -32.913968 3.387648
      CHANNELS 3 Zrotation Xrotation Yrotation
      JOINT AnkleLeft
      {
        OFFSET -1.784991 -34.143134 8.381947
        CHANNELS 3 Zrotation Xrotation Yrotation
        JOINT FootLeft
        {
          OFFSET 7.072323 -4.750213 -0.229074
          CHANNELS 3 Zrotation Xrotation Yrotation
          End Site
          {
            OFFSET 0 0 0
          }
        }
      }
    }
  }
  JOINT HipRight
  {
    OFFSET 6.488031 0.639051 -1.365194
    CHANNELS 3 Zrotation Xrotation Yrotation
    JOINT KneeRight
    {
      OFFSET 0.882936 -33.232613 8.404979
      CHANNELS 3 Zrotation Xrotation Yrotation
      JOINT AnkleRight
      {
        OFFSET -4.226689 -32.663545 7.231718
        CHANNELS 3 Zrotation Xrotation Yrotation
        JOINT FootRight
        {
          OFFSET 3.486642 -4.079270 -12.049774
          CHANNELS 3 Zrotation Xrotation Yrotation
          End Site
          {
            OFFSET 0 0 0
          }
        }
      }
    }
  }
}
MOTION
Frames: 8
Frame Time: 0.033333
16.614299 73.963994 322.296770 -0.000000 0.000000 -18.375931 -0.000000 0.000000 18.375931 -0.000000 0.000000 0.000000 -0.000000 0.000000 0.000000 0.000000 0.000000 0.000000 -0.000000 0.000000 0.000000 -0.000000 0.000000 0.000000 -0.000000 0.000000 0.000000 -0.000000 0.000000 0.000000 0.000000 0.000000 0.000000 0.000000 0.000000 0.000000 -0.000000 0.000000 0.000000 -0.000000 0.000000 0.000000 -0.000000 0.000000 0.000000 -0.000000 0.000000 0.000000 0.000000 0.000000 0.000000 0.000000 0.000000 0.000000 -0.000000 0.000000 18.375931 -0.000000 0.000000 0.000000 -0.000000 0.000000 0.000000 0.000000 0.000000 0.000000 -0.000000 0.000000 18.375931 -0.000000 0.000000 0.000000 -0.000000 0.000000 0.000000 0.000000 0.000000 0.000000
16.581360 73.975635 322.167600 0.008937 0.010585 -18.575113 -0.005100 -0.012880 18.575112 -0.000000 0.000000 0.000000 -0.000000 0.000000 0.000000 0.000000 0.000000 0.000000 -0.000000 0.000000 0.000000 0.888151 0.182315 -0.267697 1.015751 0.122824 -0.186202 -3.612343 -1.003005 0.360586 0.000000 0.000000 0.000000 0.000000 0.000000 0.000000 -0.000000 0.000000 0.000000 -0.000000 0.000000 0.000000 -0.000000 0.000000 0.000000 0.597271 0.917897 0.034337 0.000000 0.000000 0.000000 0.000000 0.000000 0.000000 -0.005100 -0.012880 18.575112 -0.000000 0.000000 0.000000 2.065591 -1.609488 -2.403786 0.000000 0.000000 0.000000 -0.005100 -0.012880 18.575112 -0.000000 0.000000 0.000000 1.218591 2.993761 -0.986984 0.000000 0.000000 0.000000
16.572221 73.987149 322.055963 0.038833 0.000238 -18.773163 -0.036691 -0.012723 18.773159 -0.000000 0.000000 0.000000 -0.000000 0.000000 0.000000 0.000000 0.000000 0.000000 -0.000000 0.000000 0.000000 1.670090 0.337416 -0.505425 1.699665 0.245740 -0.297846 -6.335541 -1.898251 0.580720 0.000000 0.000000 0.000000 0.000000 0.000000 0.000000 -0.000000 0.000000 0.000000 -0.000000 0.000000 0.000000 -0.857380 -0.026318 0.351131 1.714749 1.748991 -0.308791 0.000000 0.000000 0.000000 0.000000 0.000000 0.000000 -0.036691 -0.012723 18.773159 -0.000000 0.000000 0.000000 2.963389 -2.534403 -3.711016 0.000000 0.000000 0.000000 -0.036691 -0.012723 18.773159 -0.000000 0.000000 0.000000 2.019965 4.845218 -1.674456 0.000000 0.000000 0.000000
16.586882 73.998536 321.961858 0.089692 -0.031049 -18.970357 -0.094914 0.000206 18.970382 -0.000000 0.000000 0.000000 -0.000000 0.000000 0.000000 0.000000 0.000000 0.000000 -0.000000 0.000000 0.000000 2.348992 0.467305 -0.713295 2.050830 0.370037 -0.335033 -8.182031 -2.665644 0.684017 0.000000 0.000000 0.000000 0.000000 0.000000 0.000000 0.690877 -0.620264 0.105785 -1.165302 1.548159 -0.018360 -0.755757 -1.031963 0.440623 2.025810 2.541108 -0.496170 0.000000 0.000000 0.000000 0.000000 0.000000 0.000000 -0.046335 -0.971638 19.009629 0.270648 0.934664 -0.041043 2.874340 -2.814761 -4.109144 0.000000 0.000000 0.000000 -0.094914 0.000206 18.970382 -0.000000 0.000000 0.000000 2.458812 5.782122 -2.091466 0.000000 0.000000 0.000000
16.625342 74.009795 321.885285 0.161504 -0.083274 -19.166885 -0.179892 0.025633 19.167043 -0.000000 0.000000 0.000000 -0.000000 0.000000 0.000000 0.000000 0.000000 0.000000 0.144961 0.866553 -0.203437 2.783671 -0.281951 -0.646220 2.068808 0.496155 -0.297522 -9.161260 -3.294170 0.690457 0.000000 0.000000 0.000000 0.000000 0.000000 0.000000 0.836746 -0.777258 0.127823 -1.426228 1.965924 -0.017249 -0.991334 -1.421117 0.599372 2.014112 3.294847 -0.702210 0.000000 0.000000 0.000000 0.000000 0.000000 0.000000 -0.219770 -1.051203 19.197982 0.391802 1.003829 -0.034728 1.849836 -2.482382 -3.660162 0.000000 0.000000 0.000000 -0.179892 0.025633 19.167043 -0.000000 0.000000 0.000000 2.563363 5.915547 -2.257034 0.000000 0.000000 0.000000
16.687602 74.020927 321.826244 0.254249 -0.156422 -19.362846 -0.291730 0.063277 19.363354 -0.000000 0.000000 0.000000 -0.000000 0.000000 0.000000 0.000000 0.000000 0.000000 0.173413 1.017732 -0.239381 3.236672 -0.344541 -0.743782 1.751774 0.623505 -0.184313 -9.276633 -3.779770 0.615120 0.000000 0.000000 0.000000 0.000000 0.000000 0.000000 0.940229 -0.909399 0.142739 -1.623537 2.334364 -0.013974 -1.234287 -1.841982 0.773513 1.707246 4.025648 -0.926023 0.000000 0.000000 0.000000 0.000000 0.000000 0.000000 -0.474544 -1.010228 19.375342 0.528658 0.952037 -0.017890 -0.170092 -1.556008 -2.317226 0.000000 0.000000 0.000000 -0.291730 0.063277 19.363354 -0.000000 0.000000 0.000000 2.337763 5.262726 -2.178559 0.000000 0.000000 0.000000
16.769780 74.039398 321.766613 0.380850 -0.227648 -19.667571 -0.435249 0.086183 19.668654 -0.000000 0.000000 0.000000 -0.000000 0.000000 0.000000 0.000000 0.000000 0.000000 0.196618 1.269248 -0.297493 3.736411 -0.560723 -0.819596 0.478309 1.138594 0.177888 -7.933952 -2.399229 0.829379 0.000000 0.000000 0.000000 0.000000 0.000000 0.000000 1.084020 -1.025488 0.166857 -1.935559 2.887766 -0.008330 -1.742562 -1.907009 0.867919 0.626136 3.055167 -1.122971 0.000000 0.000000 0.000000 0.000000 0.000000 0.000000 -0.782136 -1.126251 19.662979 0.734725 1.024963 -0.004045 -4.176958 0.469587 0.970253 0.000000 0.000000 0.000000 -0.435249 0.086183 19.668654 -0.000000 0.000000 0.000000 1.372761 2.701771 -1.646228 0.000000 0.000000 0.000000
16.887578 74.052319 321.741533 0.550401 -0.328745 -19.922286 -0.629481 0.121512 19.924533 -0.000000 0.000000 0.000000 -0.000000 0.000000 0.000000 0.000000 0.000000 0.000000 0.238945 1.404014 -0.330999 4.017109 -0.596087 -0.873085 -0.532945 1.064571 0.451438 -5.433631 -4.186815 0.199747 0.000000 0.000000 0.000000 0.000000 0.000000 0.000000 1.075142 -1.136222 0.160097 -1.902089 2.941452 -0.002214 -1.548596 -1.769374 0.766081 -1.008703 3.671345 -1.042420 0.000000 0.000000 0.000000 0.000000 0.000000 0.000000 -1.220472 -0.896516 19.881581 0.902044 0.756299 0.033001 -10.510009 3.289376 6.597605 0.000000 0.000000 0.000000 -0.629481 0.121512 19.924533 -0.000000 0.000000 0.000000 0.897482 2.837211 -0.229507 0.000000 0.000000 0.000000
